<svg xmlns="http://www.w3.org/2000/svg" viewBox="0 0 360 130"><defs><linearGradient id="e"><stop stop-color="#2b5e56"/><stop offset=".5" stop-color="#a2edda"/><stop offset="1" stop-color="#568f7d"/></linearGradient></defs><g transform="rotate(-10 180 65)" stroke="#8cac97"><path fill="#344c42" d="m20 50 48 8 24-20h158l35 15v29H100L68 73 20 87Z"/><path fill="#839487" d="M96 36h146l27 16H96z"/><path fill="url(#e)" d="M146 49h113v22H146z"/><path stroke="#3d5a4a" stroke-width="6" d="M160 47v26m17-26v26m17-26v26m17-26v26m17-26v26m17-26v26"/><path fill="#253b31" d="M279 50h54v29h-54zM109 77h23l-13 30H99zM191 77h34v23h-34z"/><path fill="#9de4ca" d="M327 54h7v22h-7z"/><path fill="#d0b083" d="M107 46h16v22h-16z"/></g></svg>
